IKResults
version=1
nRows=5
nColumns=42
inDegrees=yes

Units are S.I. units (second, meters, Newtons, ...)
Angles are in degrees.

endheader
time	pelvis_tilt	pelvis_list	pelvis_rotation	pelvis_tx	pelvis_ty	pelvis_tz	hip_flexion_r	hip_adduction_r	hip_rotation_r	knee_angle_r	knee_adduction_r	knee_angle_r_beta	ankle_angle_r	subtalar_angle_r	mtp_angle_r	hip_flexion_l	hip_adduction_l	hip_rotation_l	knee_angle_l	knee_adduction_l	knee_angle_l_beta	ankle_angle_l	subtalar_angle_l	mtp_angle_l	lumbar_extension	lumbar_bending	lumbar_rotation	arm_flex_r	arm_add_r	arm_rot_r	elbow_flex_r	pro_sup_r	wrist_flex_r	wrist_dev_r	arm_flex_l	arm_add_l	arm_rot_l	elbow_flex_l	pro_sup_l	wrist_flex_l	wrist_dev_l
     43.29300000	      6.69480574	     -4.58257593	      7.86978081	      0.83215063	      0.94789141	     -0.01948982	    -17.12066570	      5.20203464	    -11.74583573	     10.77480790	      6.47602164	      0.18805587	     17.34835578	     -3.94228551	      2.30443259	     19.49362028	     -8.33706694	     -2.81319058	      9.72017657	      5.09547410	      0.16964909	      5.76269360	     -1.63588554	     -2.14442937	    -28.97373925	      5.58734422	     -0.31906408	     -0.03808343	    -19.30595051	     37.13253580	    139.04906494	     88.05819843	      0.00000000	      0.00000000	    -16.70503563	    -14.64745823	    -17.68819488	    132.57095937	     16.57245385	      0.00000000	      0.00000000
     43.30000000	      6.90217098	     -4.49095594	      7.51977800	      0.83290887	      0.94762494	     -0.02033341	    -17.57302434	      4.88501951	    -11.67640789	     11.38338324	      6.47602164	      0.19867752	     17.51827535	     -3.63444380	      2.09874392	     19.16945733	     -8.21645304	     -2.80028239	     10.52157150	      5.09547410	      0.18363607	      5.03214321	     -2.33232396	     -2.00362475	    -29.17664157	      5.35648273	     -0.12539181	     -0.58467132	    -19.25350527	     36.73147586	    137.96271891	     88.00249375	      0.00000000	      0.00000000	    -16.26260511	    -14.62224844	    -17.28649322	    132.64377560	     16.66599014	      0.00000000	      0.00000000
     43.30700000	      7.16291627	     -4.46088332	      7.38248010	      0.83362261	      0.94734068	     -0.02132764	    -18.09290704	      4.72071011	    -11.61528980	     11.89555121	      6.47602164	      0.20761654	     17.57543909	     -3.58855999	      1.99974351	     18.87911550	     -8.12430194	     -2.82375246	     11.35424012	      5.09547410	      0.19816887	      4.22717044	     -2.73119913	     -1.84630030	    -29.47362238	      5.26893752	     -0.25198260	     -1.04446199	    -19.23930301	     36.51037198	    137.08354437	     87.84600595	      0.00000000	      0.00000000	    -16.08585315	    -14.55598037	    -16.99446825	    131.76402171	     16.78636227	      0.00000000	      0.00000000
     43.31300000	      7.32794436	     -4.44499385	      7.03282888	      0.83435384	      0.94707878	     -0.02255186	    -18.37700845	      4.41076994	    -11.62177770	     12.72347968	      6.47602164	      0.22206661	     17.70035479	     -3.28129879	      1.75427089	     18.57658633	     -8.03795389	     -2.83807098	     12.02547625	      5.09547410	      0.20988415	      3.41323691	     -3.58400690	     -1.66582792	    -29.61996675	      5.17305697	     -0.04572744	     -1.62297981	    -19.19646378	     36.04176489	    135.92715916	     87.83936175	      0.00000000	      0.00000000	    -15.56143133	    -14.51941818	    -16.54998871	    131.56047610	     16.77317863	      0.00000000	      0.00000000
     43.32000000	      7.31965915	     -4.24051591	      6.71898835	      0.83529860	      0.94670897	     -0.02390693	    -18.47338792	      3.84719997	    -11.84735645	     13.65756018	      6.47602164	      0.23836939	     18.01322970	     -2.49133952	      1.10071365	     18.32983279	     -7.66690661	     -2.48932391	     12.39327631	      5.09547410	      0.21630348	      2.30975748	     -4.87787162	     -1.62778003	    -29.55340079	      4.84596694	      0.26069940	     -2.56236722	    -19.19691902	     35.41144383	    134.77840791	     87.96028315	      0.00000000	      0.00000000	    -14.86157562	    -14.54061121	    -15.74704568	    131.38858529	     16.82908301	      0.00000000	      0.00000000
